<?xml version="1.0" standalone="no"?>
<!DOCTYPE svg PUBLIC "-//W3C//DTD SVG 20010904//EN"
 "http://www.w3.org/TR/2001/REC-SVG-20010904/DTD/svg10.dtd">
<svg version="1.0" xmlns="http://www.w3.org/2000/svg"
 width="700.000000pt" height="700.000000pt" viewBox="0 0 700.000000 700.000000"
 preserveAspectRatio="xMidYMid meet">
<metadata>
Created by potrace 1.14, written by Peter Selinger 2001-2017
</metadata>
<g transform="translate(0.000000,700.000000) scale(0.100000,-0.100000)"
fill="#000000" stroke="none">
<path d="M0 3500 l0 -3500 3500 0 3500 0 0 3500 0 3500 -3500 0 -3500 0 0
-3500z m1788 1328 c5 -18 105 -428 223 -911 117 -482 216 -871 220 -865 3 7
104 417 225 911 l219 897 354 -2 355 -3 220 -897 c121 -493 222 -895 225 -893
2 3 104 406 225 897 l222 893 413 3 c390 2 412 1 407 -15 -3 -10 -154 -585
-336 -1278 -183 -693 -338 -1284 -347 -1313 l-14 -52 -462 2 -462 3 -222 903
c-122 497 -223 905 -225 907 -2 2 -99 -390 -217 -872 -117 -482 -218 -891
-223 -909 l-9 -34 -462 2 -461 3 -343 1300 c-188 715 -345 1312 -348 1328 l-7
27 411 0 410 0 9 -32z m4512 -2168 l0 -460 -422 2 -423 3 -3 458 -2 457 425 0
425 0 0 -460z"/>
</g>
</svg>
